HIERARCHY
ROOT hip
{
	OFFSET 0.000000 0.000000 0.000000 
	CHANNELS 6 Xposition Yposition Zposition Xrotation Zrotation Yrotation
	JOINT abdomen
	{
		OFFSET 0.000000 3.402643 0.000000 
		CHANNELS 3 Xrotation Zrotation Yrotation
		JOINT chest
		{
			OFFSET 0.000000 8.438565 -0.680529 
			CHANNELS 3 Xrotation Zrotation Yrotation
			JOINT neck
			{
				OFFSET 0.000000 10.207942 -0.272212 
				CHANNELS 3 Xrotation Zrotation Yrotation
				JOINT head
				{
					OFFSET 0.000000 3.130431 0.000000 
					CHANNELS 3 Xrotation Zrotation Yrotation
					End Site
					{
						OFFSET 0.000000 3.130435 0.000000 
					}
				}
			}
			JOINT lCollar
			{
				OFFSET 3.470700 6.669187 -0.816635 
				CHANNELS 3 Yrotation Zrotation Xrotation
				JOINT lShldr
				{
					OFFSET 3.198488 0.000000 0.000000 
					CHANNELS 3 Zrotation Yrotation Xrotation
					JOINT lForeArm
					{
						OFFSET 10.139888 0.000000 0.000000 
						CHANNELS 3 Yrotation Zrotation Xrotation
						JOINT lHand
						{
							OFFSET 8.370511 0.000000 0.000000 
							CHANNELS 3 Zrotation Yrotation Xrotation
							End Site
							{
								OFFSET 4.083176 0.000000 0.000000 
							}
						}
					}
				}
			}
			JOINT rCollar
			{
				OFFSET -3.470700 6.669187 -0.816635 
				CHANNELS 3 Yrotation Zrotation Xrotation
				JOINT rShldr
				{
					OFFSET -3.198488 0.000000 0.000000 
					CHANNELS 3 Zrotation Yrotation Xrotation
					JOINT rForeArm
					{
						OFFSET -10.139888 0.000000 0.000000 
						CHANNELS 3 Yrotation Zrotation Xrotation
						JOINT rHand
						{
							OFFSET -8.370511 0.000000 0.000000 
							CHANNELS 3 Zrotation Yrotation Xrotation
							End Site
							{
								OFFSET -4.083176 0.000000 0.000000 
							}
						}
					}
				}
			}
		}
	}
	JOINT lThigh
	{
		OFFSET 5.308129 -1.633274 1.361059 
		CHANNELS 3 Xrotation Zrotation Yrotation
		JOINT lShin
		{
			OFFSET -2.041588 -20.007561 0.000000 
			CHANNELS 3 Xrotation Zrotation Yrotation
			JOINT lFoot
			{
				OFFSET 0.000000 -19.190928 -1.224953 
				CHANNELS 3 Xrotation Yrotation Zrotation
				End Site
				{
					OFFSET 0.000000 -2.449906 4.627600 
				}
			}
		}
	}
	JOINT rThigh
	{
		OFFSET -5.308129 -1.633274 1.361059 
		CHANNELS 3 Xrotation Zrotation Yrotation
		JOINT rShin
		{
			OFFSET 2.041588 -20.007561 0.000000 
			CHANNELS 3 Xrotation Zrotation Yrotation
			JOINT rFoot
			{
				OFFSET 0.000000 -19.190928 -1.224953 
				CHANNELS 3 Xrotation Yrotation Zrotation
				End Site
				{
					OFFSET 0.000000 -2.449906 4.627600 
				}
			}
		}
	}
}
MOTION
Frames: 13
Frame Time: 0.033333
-63.394337 52.563770 -31.648336 5.618639 5.170488 117.266357 0.000000 0.000000 0.000000 15.732804 0.394791 7.357372 -8.603516 0.000000 0.000000 16.337980 2.883725 -12.859978 -2.957607 -0.090307 -0.002318 -80.003075 -1.414363 -37.353699 -7.372191 -28.727766 10.383375 27.988474 -14.328063 30.472521 2.957607 0.090307 -0.002334 81.475243 9.482715 -8.495224 6.321583 11.074404 1.642064 -22.421207 25.390890 25.782669 18.643766 9.263361 0.147080 7.107668 -13.170653 5.557115 -15.180884 4.339307 9.953682 -10.623898 -15.240654 -16.716402 12.936202 7.058916 0.550301 7.355259 12.960611 -1.008265 
-63.398304 52.589718 -31.676208 5.587867 5.015239 117.141121 0.000000 0.000000 0.000000 15.616039 0.573716 7.035444 -8.603516 0.000000 0.000000 16.024220 2.750245 -12.669227 -2.957607 -0.090307 -0.002318 -79.634605 -1.603443 -37.553257 -7.363962 -28.911617 10.396031 27.595196 -14.457747 31.000620 2.957607 0.090307 -0.002334 81.368027 9.556390 -8.718674 6.386255 11.052423 1.799042 -22.637772 25.364388 24.980623 18.437550 9.228329 0.296687 7.108593 -13.192528 5.604812 -15.102166 4.235073 9.957671 -10.624753 -15.447863 -16.780750 13.813823 7.185070 0.632246 5.645787 12.658740 -0.305361 
-63.417561 52.613625 -31.681532 5.536601 4.743495 117.021812 0.000000 0.000000 0.000000 15.411231 0.668431 6.785916 -8.603516 0.000000 0.000000 15.661750 2.626457 -12.506845 -2.957607 -0.090307 -0.002318 -79.399040 -1.806099 -37.509800 -7.432392 -28.883667 10.133369 27.335665 -14.537411 31.347019 2.957607 0.090307 -0.002334 81.290886 9.631827 -8.991146 6.432309 11.051692 1.936198 -22.961435 25.417778 24.116983 18.139050 9.157732 0.446587 7.103864 -13.217140 5.622672 -15.045997 4.137564 9.944964 -10.711432 -15.620012 -16.730612 14.438735 7.341427 0.742013 4.448912 12.326919 0.176666 
-63.419945 52.647728 -31.685270 5.465692 4.442681 116.919044 0.000000 0.000000 0.000000 15.216514 0.838674 6.487997 -8.603516 0.000000 0.000000 15.211022 2.425209 -12.345952 -2.957607 -0.090307 -0.002318 -79.282341 -1.985825 -37.497105 -7.409070 -28.692942 9.970667 27.294186 -14.628935 31.533876 2.957607 0.090307 -0.002334 81.147987 9.724341 -9.458286 6.537862 11.057505 2.082155 -23.275501 25.579674 23.386580 17.807753 9.118638 0.733700 7.028162 -13.255308 5.633183 -14.888912 3.924050 9.907111 -10.965178 -15.825056 -16.519787 15.055084 7.488585 0.880647 3.736160 11.647033 0.575515 
-63.434109 52.676167 -31.688105 5.365159 4.073931 116.779175 0.000000 0.000000 0.000000 14.895555 1.132506 5.994714 -8.603516 0.000000 0.000000 14.593949 2.117292 -12.111650 -2.957607 -0.090307 -0.002318 -78.941551 -2.278202 -37.227325 -7.544387 -28.372871 9.635046 27.279381 -14.571329 31.709921 2.957607 0.090307 -0.002334 80.930161 9.903086 -10.352329 6.740648 11.090511 2.344435 -23.648916 25.736897 22.556814 17.395683 9.069470 1.118074 6.918896 -13.276361 5.600134 -14.666626 3.699289 9.837111 -11.403917 -16.194588 -16.239182 15.991539 7.712711 1.113210 2.701461 10.944443 1.095081 
-63.434109 52.710388 -31.699547 5.235468 3.685774 116.646652 0.000000 0.000000 0.000000 14.633605 1.436244 5.502048 -8.603516 0.000000 0.000000 13.899160 1.818382 -11.891805 -2.957607 -0.090307 -0.002318 -78.632576 -2.502960 -36.890335 -7.162989 -27.629299 9.364198 27.656385 -14.825199 31.995789 2.957607 0.090307 -0.002334 80.697685 10.003347 -11.295306 7.013159 11.138546 2.622086 -23.893002 25.894329 21.779814 16.941956 9.052603 1.498223 6.840061 -13.303689 5.562349 -14.496767 3.464790 9.789096 -12.001300 -16.589655 -15.883512 16.783096 7.869519 1.334667 1.586733 10.341363 1.856933 
-63.388676 52.735992 -31.745096 5.057175 3.287960 116.404167 0.000000 0.000000 0.000000 14.362995 1.835356 5.020739 -8.603516 0.000000 0.000000 13.126452 1.450549 -11.594042 -2.957607 -0.090307 -0.002318 -78.394493 -2.600865 -36.271965 -6.727375 -26.752783 8.937160 28.181841 -14.969028 32.243679 2.957607 0.090307 -0.002334 80.412422 10.149627 -12.149653 7.264843 11.140203 2.880075 -24.077866 26.056355 21.082708 16.446468 9.078382 1.779429 6.752904 -13.345551 5.564555 -14.329184 3.407748 9.715104 -12.987095 -17.076935 -15.357023 17.475264 7.976174 1.579851 0.353239 9.729967 2.995503 
-63.331684 52.764431 -31.799141 4.889003 2.880126 116.135101 0.000000 0.000000 0.000000 14.112245 2.206788 4.539369 -8.603516 0.000000 0.000000 12.354220 1.110897 -11.225833 -2.957607 -0.090307 -0.002318 -78.272270 -2.549098 -35.724426 -6.218800 -25.653957 8.689106 28.879393 -15.049794 32.162750 2.957607 0.090307 -0.002334 80.145065 10.276695 -12.859417 7.486176 11.150020 3.178877 -24.370531 26.200132 20.304302 15.997639 9.108139 1.990665 6.643067 -13.365099 5.619121 -14.217889 3.392792 9.655773 -14.002068 -17.525105 -14.860521 18.088482 8.062994 1.805301 -0.697364 9.250792 4.102296 
-63.229256 52.775761 -31.850355 4.789765 2.510744 115.942970 0.000000 0.000000 0.000000 13.890676 2.521789 4.070940 -8.603516 0.000000 0.000000 11.767879 0.789810 -10.874176 -2.957607 -0.090307 -0.002318 -78.320656 -2.306304 -34.819607 -5.861962 -24.483252 8.123000 29.707991 -15.051071 31.993862 2.957607 0.090307 -0.002334 79.896805 10.345127 -13.372562 7.699923 11.147720 3.364302 -24.554575 26.352377 20.056431 15.775896 9.187656 1.815469 6.487819 -13.425987 5.660508 -14.260083 3.682282 9.538191 -15.085101 -17.904469 -14.559157 18.121986 8.045228 2.019736 -0.559462 9.215249 5.475569 
-63.092724 52.707550 -31.930006 4.691374 2.326173 115.786789 0.000000 0.000000 0.000000 13.768009 2.902569 3.591817 -8.603516 0.000000 0.000000 11.279382 0.458484 -10.525369 -2.957607 -0.090307 -0.002318 -78.385437 -1.917436 -33.877430 -5.332296 -23.175350 7.872477 30.324810 -15.000755 31.393642 2.957607 0.090307 -0.002334 79.687981 10.346199 -13.710620 7.803984 11.113554 3.523602 -24.667620 26.490568 20.059025 15.876390 9.305919 1.780798 6.380760 -13.409521 5.629284 -14.468472 3.923263 9.384261 -15.897216 -18.141890 -14.748378 18.020245 7.916646 2.224389 -0.168628 9.894210 6.562120 
-62.865097 52.565247 -32.018269 4.574028 2.307090 115.702339 0.000000 0.000000 0.000000 13.576123 3.189760 3.260505 -8.603516 0.000000 0.000000 11.015661 0.312223 -10.348125 -2.957607 -0.090307 -0.002318 -78.404007 -1.335405 -32.457939 -4.898466 -21.807606 7.494534 30.700602 -14.901419 30.694221 2.957607 0.090307 -0.002334 79.700027 10.181755 -13.914904 7.788693 11.022491 3.605204 -24.828537 26.507359 20.138044 16.766890 9.628676 2.069025 6.430111 -13.343465 5.439705 -15.346001 3.940930 8.961309 -16.081396 -17.778038 -14.980878 17.331409 7.645232 1.830591 0.623693 11.284275 6.592886 
-62.577766 52.402992 -32.129192 4.359255 2.385665 115.650810 0.000000 0.000000 0.000000 13.327448 3.592255 2.920848 -8.603516 0.000000 0.000000 10.898447 0.165882 -10.159340 -2.957607 -0.090307 -0.002318 -78.524849 -0.691860 -31.157253 -4.430467 -20.482302 7.348120 30.666973 -14.855168 30.060114 2.957607 0.090307 -0.002334 79.753525 9.881007 -13.856731 7.665474 10.929916 3.637557 -25.010487 26.434254 19.927639 18.122683 10.136127 2.523534 6.510588 -13.252453 5.412125 -16.575647 3.605340 8.353039 -16.004953 -17.000196 -14.721884 16.509691 7.380825 1.846114 1.313948 11.441944 6.578036 
-62.242046 52.249355 -32.260059 4.085968 2.513136 115.550819 0.000000 0.000000 0.000000 12.951826 3.988037 2.743031 -8.603516 0.000000 0.000000 10.898438 0.009758 -10.038671 -2.957607 -0.090307 -0.002318 -78.820976 -0.098157 -29.994465 -4.178056 -19.367332 7.037140 30.569523 -14.529926 29.180447 2.957607 0.090307 -0.002334 79.805153 9.529832 -13.543377 7.454120 10.790586 3.552018 -25.156113 26.295366 19.668173 20.176077 10.914495 3.446831 6.282748 -13.182671 5.147929 -17.422224 3.465148 7.409875 -15.572626 -15.970449 -14.437487 15.681433 7.215587 1.691624 2.017646 11.530471 6.276807 
